# xmcd CD database file
#
# Track frame offsets:
#	182
#	4132
#	19362
#	31907
#	34660
#	53755
#	72557
#	90875
#	108852
#	123587
#	144165
#	157597
#	173535
#	190130
#	216687
#
# Disc length: 3086 seconds
#
# Revision: 2
# Processed by: cddbd v1.4PL0 Copyright (c) Steve Scherf et al.
# Submitted via: CDex 1.51
#
DISCID=bd0c0c0f
DTITLE=Charlélie Couture - Casque Nu
DYEAR=1997
DGENRE=Rock
TTITLE0=Intro Chicago
TTITLE1=La musique des villes
TTITLE2=Jacques a dit ci (Jakadica)
TTITLE3=Intro le grand bureau
TTITLE4=Le grand Bureau du Haut
TTITLE5=Chicago Night Blues
TTITLE6=Blues gourmand
TTITLE7=Les champions - TennisMetaphore
TTITLE8=Valse vague à l'âme
TTITLE9=Elle danse pour oublier
TTITLE10=Les mobiles de Calder
TTITLE11=Ils s'aiment sûrement
TTITLE12=Bob le prophète
TTITLE13=Hobo piano blues
TTITLE14=Casque nu
EXTD=YEAR: 1997
EXTT0=
EXTT1=
EXTT2=
EXTT3=
EXTT4=
EXTT5=
EXTT6=
EXTT7=
EXTT8=
EXTT9=
EXTT10=
EXTT11=
EXTT12=
EXTT13=
EXTT14=
PLAYORDER=
